<?xml version="1.0" encoding="utf-8"?>
<!-- Generator: Adobe Illustrator 21.1.0, SVG Export Plug-In . SVG Version: 6.00 Build 0)  -->
<svg version="1.1" id="Layer_1" xmlns="http://www.w3.org/2000/svg" xmlns:xlink="http://www.w3.org/1999/xlink" x="0px" y="0px"
	 viewBox="0 0 403.4 177.1" style="enable-background:new 0 0 403.4 177.1;" xml:space="preserve">
<style type="text/css">
	.st0{enable-background:new    ;}
	.st1{fill:#FFFFFF;}
	.st2{fill:#C6C6C6;}
</style>
<g class="st0">
	<path class="st1" d="M131.3,140.1h-7.2L106,114.6v25.5h-8.5V98.9h7.2l18.1,25.6V98.9h8.5V140.1z"/>
	<path class="st1" d="M148.2,132.6h18v7.6h-26.5V98.9h8.5V132.6z"/>
	<path class="st1" d="M217.7,106.4h-13.8v33.8h-8.5v-33.8h-13.8v-7.5h36.1V106.4z"/>
	<path class="st1" d="M248.1,128.4h-19.6c0.2,3.6,2.4,5.8,6,5.8c2.9,0,4.6-1,5.2-3.1l8.1,0.4c-0.5,2.7-2,5-4.5,6.7
		c-2.4,1.7-5.3,2.6-8.7,2.6c-4.4,0-8-1.3-10.7-4c-2.7-2.7-4-6.3-4-10.8c0-4.6,1.3-8.2,4-10.8c2.7-2.7,6.2-4,10.5-4
		c4.1,0,7.4,1.3,9.9,3.8c2.5,2.5,3.7,6,3.7,10.4V128.4z M228.5,123.1H240c-0.2-3.6-2-5.7-5.6-5.7
		C230.9,117.4,228.7,119.5,228.5,123.1z"/>
	<path class="st1" d="M275.8,120.3l-8,0.4c-0.1-2.3-1.3-3.5-3.6-3.5c-2.2,0-3.3,0.8-3.3,2.4c0,0.9,0.4,1.4,1.2,1.8
		c0.9,0.5,2.5,0.8,4.4,1.3c6.6,1.7,9.7,3.6,9.7,8.4c0,5.9-4.4,9.5-11.7,9.5c-7.3,0-11.5-3.3-12.1-9.3l8.1-0.4
		c0.1,2.4,1.5,3.5,4.1,3.5c2.2,0,3.6-1,3.6-2.6c0-1.7-1-2.2-5.2-3.3c-2.9-0.7-4.2-1.1-6.2-2c-2.6-1.4-3.7-3.1-3.9-6.7
		c0-5.5,4.3-9,11.4-9C271.2,111.1,275.3,114.8,275.8,120.3z"/>
	<path class="st1" d="M292.3,118.6l-0.1,10.6c0,2.9,1.8,4.3,4.3,4.3c0.6,0,1.4-0.1,2.5-0.3v7.2c-1.5,0.2-3,0.3-4.5,0.3
		c-6.5,0-10.4-3.2-10.4-9.6l0.1-12.5H279v-7h5.2l0.1-9.4h8.1l-0.1,9.4h6.7v7H292.3z"/>
	<path class="st1" d="M332.9,140.1h-7.6v-2.9c-1.6,2-4.7,3.5-8.5,3.5c-4,0-7.3-1.4-9.9-4.1c-2.5-2.7-3.8-6.3-3.8-10.8
		s1.3-8.1,3.8-10.8c2.6-2.7,5.9-4.1,9.9-4.1c3.6,0,6.3,1,8.1,3V97.3h8V140.1z M311.3,125.9c0,5,2.8,7.9,6.9,7.9c4,0,6.7-2.7,6.7-7.3
		v-1.3c0-4.5-2.7-7.3-6.7-7.3C314,118,311.3,120.9,311.3,125.9z"/>
	<path class="st1" d="M363.9,122.5v17.6h-7.8v-2.3c-1.9,1.9-4.3,2.9-7.3,2.9c-5.9,0-9.5-3-9.5-8.4s3.8-8.3,11.4-8.7l5.1-0.3v-1.1
		c0-2.9-1.2-4.4-3.7-4.4c-2.6,0-4,1.7-4,3.8l-8.1-0.3c0-2.6,1.1-5,3.3-7.1c2.3-2.1,5.1-3.1,8.6-3.1
		C359.8,111.1,363.9,115,363.9,122.5z M355.9,128.7l-4.3,0.3c-2.8,0.1-4.1,1.1-4.1,3c0,1.7,1.1,2.6,3.3,2.6c3,0,5.1-1.7,5.1-4.6
		V128.7z"/>
	<path class="st1" d="M392.3,114.6v-3h7.6v29.6c0,4.1-1.3,7.4-3.9,9.9c-2.6,2.5-6.1,3.7-10.5,3.7c-8.6,0-13.6-4.2-14.7-11l8-0.3
		c0.4,2.8,2.8,4.4,6.4,4.4c4.1,0,6.7-2.2,6.7-6.1v-4.1c-1.9,2-4.6,3-8.1,3c-4,0-7.3-1.4-9.9-4.1c-2.5-2.7-3.8-6.3-3.8-10.8
		s1.3-8.1,3.8-10.8c2.6-2.7,5.9-4.1,9.9-4.1C387.7,111.1,390.6,112.2,392.3,114.6z M378.3,125.9c0,5,2.8,7.9,6.9,7.9
		c4,0,6.7-2.8,6.7-7.3v-1.3c0-4.5-2.7-7.3-6.7-7.3C381,118,378.3,120.9,378.3,125.9z"/>
</g>
<g>
	<g>
		<path class="st2" d="M53.9,106.5C53.9,106.5,53.8,106.5,53.9,106.5c0,0.2,0,0.3,0.1,0.4C54,106.6,53.9,106.5,53.9,106.5z"/>
	</g>
	<g>
		<path class="st2" d="M54.3,152.9c3.9-16.2,1.2-37,0.1-44c0,7.9,0,15.8,0.1,23.7C54.4,139.3,54.8,146.2,54.3,152.9z"/>
	</g>
	<path class="st2" d="M31.2,173.7c-0.6,0-1.3-0.1-1.9-0.2c0,1.5,1.1,2.9,3.3,2.8c12.5-0.6,20.2-9.9,21.5-21.9c0.1-0.5,0.1-1,0.1-1.5
		C51.4,164.9,44.8,174.4,31.2,173.7z"/>
	<path class="st2" d="M54.3,108.4c0-0.6-0.1-1.1-0.3-1.5c0.1,0.4,0.2,1.1,0.3,2C54.3,108.7,54.3,108.5,54.3,108.4z"/>
	<path class="st2" d="M54.3,152.9c0.5-6.7,0.2-13.6,0.1-20.3c0-7.9,0-15.8-0.1-23.7c-0.2-1-0.3-1.6-0.3-2c-0.1-0.1-0.1-0.2-0.2-0.3
		c-2.5,1.7-4.3,3.4-6.4,4.7c0,11.3,0.1,22.6,0.1,33.9c0,10.6-1.5,24.7-14.8,25.4c-2.2,0.1-3.3,1.6-3.3,3c0.6,0.1,1.2,0.1,1.9,0.2
		C44.8,174.4,51.4,164.9,54.3,152.9z"/>
</g>
<g>
	<g>
		<path class="st1" d="M53.9,106.5c-5.8,3.8-7.4,8.1-19.3,6.2c-2-0.3-3.9-1.4-5.8-2.1c-6.9-2.3-15.1-0.4-20.4,4.6
			c0,0-7.3,56.9,22.7,58.5C67.2,175.6,53.9,106.5,53.9,106.5z M19.8,122.4c0-2.1,1.7-3.8,3.8-3.8s3.8,1.7,3.8,3.8
			c0,2.1-1.7,3.8-3.8,3.8C21.5,126.2,19.8,124.5,19.8,122.4z M26,156.4c-1.3,0-2.3-1-2.3-2.3s1-2.3,2.3-2.3s2.3,1,2.3,2.3
			S27.2,156.4,26,156.4z M39.9,143c-1.7,0-3-1.3-3-3s1.3-3,3-3s3,1.3,3,3C42.9,141.6,41.5,143,39.9,143z"/>
	</g>
</g>
<circle class="st1" cx="39.9" cy="103.2" r="3.3"/>
<circle class="st1" cx="23.6" cy="97.3" r="2.8"/>
<circle class="st1" cx="36.1" cy="82.4" r="2.1"/>
<circle class="st1" cx="51.1" cy="54.5" r="2.7"/>
<circle class="st1" cx="16.1" cy="44.4" r="2.3"/>
<circle class="st1" cx="11.2" cy="2.3" r="2.3"/>
<circle class="st1" cx="46.8" cy="10.9" r="1.5"/>
<circle class="st1" cx="22.4" cy="17.9" r="1.5"/>
<circle class="st1" cx="41.6" cy="37.4" r="1.5"/>
<path class="st1" d="M56.3,107.5c-0.1-0.5-0.2-1.1-0.3-1.6c-0.2-0.7-0.6-1.1-1.1-1.3c-0.6-0.4-1.3-0.4-2,0.1
	c-4.3,3-7.5,6.3-13.1,6.4c-7.3,0.1-13.1-4.3-20.6-3.2c-3.6,0.5-7.6,1.8-10.3,4.3v45.5c4.8,13.3,16.3,21.6,31,16.9
	c8.7-2.8,13.7-9.8,16.4-17.9C56.3,156.7,56.3,107.5,56.3,107.5z M45.6,166.5c-5.2,4.7-13.6,6.4-20.3,4.2
	c-7.1-2.4-10.8-9.1-12.9-15.9C8.9,143.5,9,131,10.1,119.3c1-10.5,15.6-6.8,23-4.9c8.4,2.2,13.4-0.3,19.5-4.5
	C56.3,127.3,59.4,154.1,45.6,166.5z"/>
<path class="st1" d="M60.8,67.6c-14.5,0-56.4,0-56.4,0C2,67.6,0,69.6,0,72c0,1.9,1.2,3.5,2.9,4.1l0,0c1.6,0.6,2.7,2.1,2.8,4
	c0,0-0.2,50.9,0,67.9c0.1,9.7,4.1,29.1,25.7,29.1c23.1,0,27.5-19.1,27.5-29.1c0-17,0-68.1,0-68.1C59,78,60.3,76.5,62,76
	c1.6-0.7,2.7-2.2,2.7-4C64.7,69.7,63,67.6,60.8,67.6z M52.4,79.3v0.3v0.3c0,0,0,51.1,0,68.1c0,6.8-2.1,22.6-20.9,22.6
	c-17,0-19-15.9-19.1-22.7c-0.2-16.7,0-67.3,0-67.8v-0.2c-0.1-2.1-0.7-4.1-1.8-5.8h43.7C53.2,75.7,52.5,77.4,52.4,79.3z"/>
</svg>
