<?xml version="1.0" encoding="utf-8"?>
<!-- Generator: Adobe Illustrator 16.0.0, SVG Export Plug-In . SVG Version: 6.00 Build 0)  -->
<!DOCTYPE svg PUBLIC "-//W3C//DTD SVG 1.1//EN" "http://www.w3.org/Graphics/SVG/1.1/DTD/svg11.dtd">
<svg version="1.1" id="Layer_2" xmlns="http://www.w3.org/2000/svg" xmlns:xlink="http://www.w3.org/1999/xlink" x="0px" y="0px"
	 width="512px" height="412.572px" viewBox="0 0 512 412.572" enable-background="new 0 0 512 412.572" xml:space="preserve">
<g>
	<g>
		<g>
			<path fill="#7ECCFD" d="M116.18,248.121c-4.648-12.01-7.742-24.735-9.133-37.965c-0.68-6.48-0.908-12.957-0.736-19.396
				c0.588-21.877,6.047-43.304,16.154-62.858l-7.283-3.763c-10.619,20.549-16.453,43.174-17.082,66.383
				c-0.184,6.807,0.068,13.662,0.79,20.53c1.477,14.046,4.812,27.454,9.719,40.017c10.562,27.043,28.446,50.143,50.993,67.148
				l4.889-6.485C142.355,295.044,125.871,273.155,116.18,248.121z"/>
			<path fill="#51BBFD" d="M403.583,280.542l-0.17-0.097c-11.847,20.825-27.912,39.077-47.152,53.48
				c-24.194,18.112-53.403,30.144-85.581,33.525c-27.074,2.846-53.367-0.734-77.367-9.496l-0.063,0.172l-3.944,10.892l-3.773,10.414
				c27.86,10.093,58.182,13.787,87.684,10.687c39.573-4.159,76.53-20.07,106.874-46.012c17.584-15.03,32.097-32.825,43.197-52.416
				L403.583,280.542z"/>
			<path fill="#3BB3FC" d="M401.754,67.353L384.432,82.16c22.724,26.545,36.963,59.408,40.662,94.605
				c3.909,37.197-4.298,72.926-21.43,103.246c-0.083,0.146-0.168,0.289-0.251,0.434l0.17,0.097l19.703,11.149
				c19.923-35.157,28.818-76.128,24.475-117.463C443.602,134.657,427.692,97.701,401.754,67.353z"/>
			<path fill="#3BB3FC" d="M406.197,178.751c-3.395-32.303-16.436-61.328-36.081-84.355l-6.37,5.445l-8.398,6.447
				c6.161,7.105,11.272,14.443,15.886,22.756c8.935,16.104,14.432,33.46,16.337,51.59c2.918,27.761-3.031,56.465-16.744,80.881
				l9.168,5.164l7.121,4.011C402.371,243.689,409.679,211.875,406.197,178.751z"/>
			<path fill="#51BBFD" d="M379.994,266.679c-0.074,0.131-0.147,0.261-0.221,0.391c-8.271,14.588-19.08,27.84-32.175,39.031
				c-2.468,2.109-5.005,4.115-7.586,6.044c-21.073,15.76-45.775,25.488-72.024,28.247c-22.019,2.314-44.644-0.442-65.428-7.97
				l-2.778,7.669c21.376,7.807,44.796,10.998,68.912,8.463c28.653-3.011,54.664-13.725,76.208-29.853
				c17.13-12.823,31.432-29.071,41.98-47.61c0.076-0.133,0.156-0.267,0.232-0.401L379.994,266.679z"/>
			<path fill="#51BBFD" d="M383.5,81.087c-4.778-5.49-9.913-10.71-15.405-15.61c-32.014-28.565-73.174-44.224-115.899-44.089
				l0.061,19c46.555-0.146,88.548,20.227,117.018,53.037c0.282,0.324,0.564,0.645,0.843,0.971l14.315-12.236
				C384.123,81.8,383.811,81.445,383.5,81.087z"/>
			<path fill="#51BBFD" d="M124.029,96.276l-3.172-2.437l-5.952-4.568c-6.356,8.279-11.894,17.031-16.604,26.143l16.881,8.725
				c4.197-8.119,9.131-15.92,14.795-23.298L124.029,96.276z"/>
			<path fill="#009EFF" d="M235.639,33.786c5.469-0.575,11.029-0.875,16.523-0.892l-0.012-4c-5.63,0.018-11.326,0.324-16.93,0.914
				c-45.771,4.811-86.369,27.547-114.363,64.031l3.172,2.437C151.35,60.67,190.969,38.48,235.639,33.786z"/>
			<path fill="#009EFF" d="M425.094,176.765c-3.699-35.197-17.938-68.061-40.662-94.605l-14.315,12.236
				c19.646,23.027,32.687,52.053,36.081,84.355c3.481,33.123-3.826,64.938-19.082,91.938c-0.076,0.135-0.156,0.269-0.232,0.401
				c-10.549,18.539-24.851,34.787-41.98,47.61c-21.544,16.128-47.555,26.842-76.208,29.853c-24.116,2.535-47.536-0.656-68.912-8.463
				c-14.474-5.286-28.003-12.692-40.181-21.875c-22.547-17.006-40.432-40.105-50.993-67.148
				c-4.907-12.563-8.242-25.971-9.719-40.017c-0.722-6.868-0.974-13.724-0.79-20.53c0.629-23.209,6.463-45.834,17.082-66.383
				l-16.881-8.725c-11.93,23.08-18.486,48.49-19.193,74.557c-0.209,7.648,0.076,15.35,0.887,23.066
				c1.657,15.77,5.402,30.822,10.908,44.929c11.86,30.372,31.947,56.316,57.27,75.415c13.678,10.316,28.88,18.637,45.141,24.574
				c24,8.762,50.293,12.342,77.367,9.496c32.178-3.382,61.387-15.413,85.581-33.525c19.24-14.403,35.306-32.655,47.152-53.48
				c0.083-0.145,0.168-0.287,0.251-0.434C420.796,249.691,429.003,213.962,425.094,176.765z"/>
			<path fill="#7ECCFD" d="M90.902,257.965c-5.506-14.106-9.251-29.159-10.908-44.929c-0.811-7.717-1.096-15.418-0.887-23.066
				c0.707-26.066,7.264-51.477,19.193-74.557l-20.254-10.469c-17.578,34.009-24.744,72.197-20.726,110.438
				c2.786,26.502,10.733,51.709,23.622,74.918c13.351,24.044,31.334,44.688,53.451,61.357l6.654-8.827l6.994-9.279l0.129-0.171
				C122.85,314.282,102.763,288.337,90.902,257.965z"/>
		</g>
		<g>
			
				<rect x="20.594" y="161.689" transform="matrix(0.9945 -0.1045 0.1045 0.9945 -20.6401 27.6191)" fill="#009EFF" width="465.173" height="98.075"/>
			<g>
				<g>
					<polygon fill="#FFFFFF" points="197.424,200.084 195.765,184.308 121.632,192.101 123.287,207.875 150.631,205 155.639,252.67 
						175.092,250.626 170.084,202.958 					"/>
					<path fill="#FFFFFF" d="M28.995,201.21l12.881,28.733l0.008-0.009c3.089,7.38,10.635,8.595,32.647,6.279
						c25.061-2.636,27.377-2.522,27.957,2.996c0.514,4.908-3.645,5.789-7.763,6.221l-23.835,2.504
						c-5.609,0.589-8.381,0.35-9.178-6.391l-19.453,2.047l0.461,4.379c1.445,13.758,8.894,16.342,26.594,14.479l23.573-2.478
						c25.85-2.713,31.337-6.127,29.543-23.213c-1.944-18.49-9.148-19.595-39.37-16.328c-20.848,2.279-23.232,2.351-23.811-3.167
						c-0.359-3.415,2.463-5.222,6.844-5.681l21.559-2.266c8.936-0.938,9.666,0.931,10.154,5.578l19.453-2.047l-0.211-2.01
						c-1.171-11.133-4.075-18.533-26.508-16.178L28.995,201.21z"/>
					<path fill="#FFFFFF" d="M215.393,182.247l-27.682,67.052l21.732-2.284l4.516-11.813l39.434-4.146l7.225,10.582l21.646-2.277
						l-41.546-59.775L215.393,182.247z M219.796,220.767l9.765-25.125l15.124,22.507L219.796,220.767z"/>
					<polygon fill="#FFFFFF" points="382.76,164.656 352.877,167.795 335.177,210.942 308.889,172.421 279.009,175.56 
						285.677,239.003 304.604,237.015 299.815,191.448 299.99,191.429 330.279,234.316 344.826,232.787 365.532,184.541 
						365.713,184.523 370.501,230.086 389.429,228.098 					"/>
					<path fill="#FFFFFF" d="M392.397,163.644l6.666,63.441l19.455-2.042l-1.675-15.95l38.644-4.063
						c13.757-1.445,16.732-12.745,15.74-22.209l-0.57-5.432c-1.305-12.443-6.754-21.262-25.245-19.318L392.397,163.644z
						 M450.759,180.277l0.258,2.457c0.396,3.766-1.043,6.928-5.599,7.407l-30.232,3.177l-1.68-15.947l28.569-3.001
						C447.945,173.753,450.306,175.984,450.759,180.277z"/>
				</g>
				<polygon fill="#FF6600" points="57.284,213.207 52.184,201.74 45.557,202.437 33.617,203.693 39.631,217.208 43.242,225.33 				
					"/>
			</g>
		</g>
	</g>
	<g>
		
			<rect x="28.717" y="283.714" transform="matrix(0.9945 -0.1045 0.1045 0.9945 -30.2284 29.0062)" fill="#0076B7" width="465.811" height="38.37"/>
		<g>
			<path fill="#FFFFFF" d="M47.648,326.825l0.103,0.975c0.252,2.396,1.3,2.455,5.003,2.065c3.648-0.384,4.079-1.104,3.824-3.528
				c-0.313-2.979-1.859-2.422-4.996-2.261c-4.54,0.194-8.087,0.737-8.725-5.333c-0.603-5.736,3-6.285,8.012-6.812
				c4.261-0.448,7.756-0.675,8.333,4.812l0.07,0.669l-4.01,0.421l-0.07-0.668c-0.237-2.256-1.165-2.242-3.977-1.947
				c-3.982,0.418-4.582,0.875-4.348,3.104c0.27,2.561,0.808,2.59,4.899,2.412c6.474-0.285,8.263-0.136,8.822,5.183
				c0.618,5.876-2.114,6.669-7.489,7.234c-4.623,0.485-8.729,1.06-9.359-4.929l-0.103-0.975L47.648,326.825z"/>
			<path fill="#FFFFFF" d="M77.126,323.08c0.594,5.653,0.004,7.545-6.094,8.186c-6.099,0.642-7.069-1.087-7.663-6.739
				c-0.597-5.68-0.008-7.572,6.091-8.214C75.559,315.671,76.529,317.4,77.126,323.08z M66.882,324.184
				c0.41,3.898,0.751,4.736,3.87,4.408s3.279-1.217,2.869-5.115c-0.416-3.955-0.76-4.818-3.879-4.491S66.466,320.231,66.882,324.184
				z"/>
			<path fill="#FFFFFF" d="M88.138,317.221l-3.564,0.375l1.255,11.945l-3.509,0.369l-1.255-11.945l-2.061,0.216l-0.281-2.674
				l2.061-0.216l-0.135-1.281c-0.369-3.508,0.313-5.072,4.154-5.477l2.283-0.24l0.281,2.674l-1.058,0.111
				c-2.403,0.168-2.301,1.143-2.111,2.953l0.094,0.891l3.564-0.375L88.138,317.221z"/>
			<path fill="#FFFFFF" d="M88.719,314.458l1.838-0.193l-0.348-3.314l3.508-0.369l0.348,3.314l5.597-0.588l0.281,2.674l-5.597,0.588
				l0.787,7.49c0.169,1.334,0.233,1.946,1.709,1.791c1.977-0.208,1.59-1.744,1.429-3.275l3.091-0.324
				c0.521,4.422-0.453,5.875-4.24,6.272c-3.843,0.403-5.106-0.364-5.495-4.067l-0.79-7.518L89,317.131L88.719,314.458z"/>
			<path fill="#FFFFFF" d="M121.667,325.774l-5.012,0.527l-3.853-11.477l-0.084,0.01l-1.355,12.023l-5.095,0.535l-4.851-14.271
				l3.453-0.362l3.763,11.964l0.084-0.008l1.555-12.523l4.372-0.46l4.097,11.929l0.111-0.012l1.222-12.488l3.397-0.356
				L121.667,325.774z"/>
			<path fill="#FFFFFF" d="M136.901,322.317l-0.084,0.008c-0.491,2.022-2.629,2.303-4.328,2.48c-3.313,0.35-5.531-0.122-5.946-4.075
				c-0.369-3.51,1.366-4.677,4.986-5.058c1.782-0.187,3.54-0.344,4.548,1.211l0.112-0.012l-0.199-1.894
				c-0.249-2.366-0.532-3.181-3.456-2.874c-1.532,0.16-2.742,0.428-2.543,2.322l-3.508,0.369c-0.448-4.261,2.458-4.734,5.8-5.086
				c4.678-0.492,6.704,0.027,7.219,4.928l0.963,9.162l-3.508,0.368L136.901,322.317z M130.051,320.362
				c0.217,2.061,1.073,2.166,3.44,1.918c1.865-0.196,3.213-0.507,2.993-2.595c-0.214-2.033-1.724-1.932-3.45-1.75
				C131.251,318.122,129.831,318.272,130.051,320.362z"/>
			<path fill="#FFFFFF" d="M146.334,308.401l0.118,1.932l0.14-0.016c0.526-1.688,1.98-2.32,3.679-2.498
				c3.091-0.325,4.037,1.434,4.326,4.191l0.123,1.168l-3.286,0.346l-0.079-0.752c-0.155-1.475-0.385-2.323-2.028-2.15
				c-2.089,0.219-2.576,1.48-2.32,3.367l0.948,9.023l-3.509,0.368l-1.537-14.619L146.334,308.401z"/>
			<path fill="#FFFFFF" d="M171.301,315.857c0.483,4.595-2.139,5.095-6.316,5.534c-5.597,0.588-6.927-1.074-7.521-6.727
				c-0.55-5.236,0.045-7.607,5.949-8.227c6.015-0.633,7.007,1.037,7.677,7.413l-10.053,1.057c0.331,3.146,0.52,4.141,3.667,3.81
				c1.949-0.205,3.316-0.32,3.088-2.492L171.301,315.857z M167.348,311.993c-0.316-3.008-0.785-3.184-3.653-2.881
				c-3.036,0.318-3.163,0.979-2.891,3.568L167.348,311.993z"/>
			<path fill="#FFFFFF" d="M194.429,318.127l-4.01,0.421l-1.835-17.459l-6.126,0.644l-0.36-3.426l16.262-1.709l0.36,3.426
				l-6.126,0.645L194.429,318.127z"/>
			<path fill="#FFFFFF" d="M213.21,311.452c0.483,4.596-2.139,5.096-6.316,5.534c-5.597,0.588-6.927-1.074-7.521-6.727
				c-0.55-5.235,0.045-7.606,5.949-8.227c6.015-0.632,7.007,1.038,7.677,7.413l-10.053,1.057c0.331,3.146,0.52,4.141,3.667,3.811
				c1.949-0.205,3.317-0.321,3.088-2.492L213.21,311.452z M209.257,307.587c-0.316-3.008-0.785-3.183-3.653-2.881
				c-3.036,0.319-3.164,0.979-2.891,3.569L209.257,307.587z"/>
			<path fill="#FFFFFF" d="M225.083,304.15c-0.184-1.754-1.103-1.657-2.969-1.462c-1.866,0.197-3.146,0.332-2.945,2.252
				c0.152,1.449,0.548,1.465,3.625,1.281c3.471-0.196,6.507-0.768,7.005,3.965c0.416,3.955-2.662,4.672-6.366,5.061
				c-3.982,0.419-6.656,0.7-7.156-4.062l3.509-0.368c0.277,2.109,0.806,2.309,3.396,2.035c2.088-0.219,3.32-0.291,3.109-2.297
				c-0.135-1.281-0.286-1.912-3.828-1.596c-5.384,0.48-6.435-0.141-6.827-3.872c-0.421-4.011,2.466-4.398,6.226-4.794
				c2.868-0.301,6.299-0.605,6.729,3.488L225.083,304.15z"/>
			<path fill="#FFFFFF" d="M230.262,299.581l1.838-0.193l-0.348-3.314l3.508-0.369l0.348,3.314l5.597-0.588l0.281,2.674
				l-5.597,0.588l0.787,7.49c0.169,1.334,0.233,1.946,1.709,1.791c1.977-0.207,1.591-1.744,1.43-3.275l3.091-0.324
				c0.521,4.422-0.452,5.875-4.24,6.273c-3.843,0.403-5.106-0.365-5.495-4.068l-0.79-7.518l-1.838,0.193L230.262,299.581z"/>
			<path fill="#FFFFFF" d="M247.599,294.436l-3.508,0.368l-0.313-2.979l3.509-0.369L247.599,294.436z M249.48,312.34l-3.508,0.369
				l-1.537-14.619l3.508-0.369L249.48,312.34z"/>
			<path fill="#FFFFFF" d="M255.462,296.932l0.231,2.199l0.111-0.012c0.554-2.227,2.285-2.633,4.345-2.85
				c3.844-0.404,5.18,1.061,5.555,4.625l1.013,9.635l-3.509,0.368l-0.975-9.272c-0.223-2.116-0.771-2.79-3.027-2.553
				c-3.063,0.322-3.329,1.813-3.054,4.432l0.846,8.047l-3.509,0.368l-1.537-14.619L255.462,296.932z"/>
			<path fill="#FFFFFF" d="M280.365,306.983l-0.083,0.01c-0.717,2.018-2.548,2.547-4.329,2.734
				c-5.014,0.527-5.888-2.168-6.338-6.457c-0.473-4.482-0.665-7.926,4.766-8.496c2.061-0.217,3.723,0.059,4.815,1.887l0.111-0.012
				l-0.37-2.186l3.508-0.368l1.534,14.591c0.554,5.264-0.985,6.693-6.333,7.256c-3.564,0.374-6.301,0.041-6.538-4.354l3.286-0.346
				c0.211,2.006,0.994,2.232,2.971,2.025c2.98-0.314,3.557-0.994,3.293-3.5L280.365,306.983z M273.033,302.039
				c0.348,3.313,0.55,5.235,3.668,4.907c3.51-0.369,3.325-2.123,2.959-5.604c-0.328-3.119-0.933-4.322-3.969-4.002
				C273.27,297.594,272.646,298.364,273.033,302.039z"/>
			<path fill="#FFFFFF" d="M301.973,302.827l-0.893,4.091l-4.149,0.437l4.739-21.613l5.902-0.621l9.269,20.141l-4.065,0.428
				l-1.779-3.81L301.973,302.827z M305.055,288.481l-0.056,0.006l-2.427,11.207l7.213-0.758L305.055,288.481z"/>
			<path fill="#FFFFFF" d="M321.125,290.03l0.223,2.117l0.11-0.012c0.584-1.949,2.517-2.574,4.354-2.768
				c1.838-0.192,4.004,0.059,4.617,2.135l0.111-0.012c0.454-2.104,2.4-2.871,4.35-3.076c3.787-0.398,5.178,0.779,5.555,4.371
				l1.039,9.885l-3.508,0.369l-1.004-9.551c-0.277-1.829-0.799-2.506-2.72-2.305c-2.841,0.299-3.263,1.639-2.991,4.229l0.867,8.242
				l-3.51,0.368l-1.004-9.551c-0.276-1.829-0.797-2.506-2.719-2.304c-2.84,0.299-3.264,1.637-2.99,4.227l0.865,8.242l-3.508,0.369
				l-1.537-14.619L321.125,290.03z"/>
			<path fill="#FFFFFF" d="M347.727,289.458l0.111-0.012c0.689-2.015,2.258-2.629,4.318-2.846c5.43-0.571,5.957,2.836,6.428,7.319
				c0.451,4.289,0.156,7.106-4.857,7.634c-1.781,0.188-3.682,0.049-4.621-1.654l-0.139,0.015l0.869,8.271l-3.51,0.368l-2.201-20.941
				l3.51-0.368L347.727,289.458z M355.076,294.289c-0.35-3.313-0.467-5.243-3.67-4.907c-3.592,0.378-3.324,2.123-2.959,5.604
				c0.328,3.119,0.934,4.322,3.969,4.004C354.838,298.733,355.461,297.964,355.076,294.289z"/>
			<path fill="#FFFFFF" d="M366.604,300.031l-3.51,0.368l-2.195-20.885l3.51-0.368L366.604,300.031z"/>
			<path fill="#FFFFFF" d="M372.268,281.333l-3.51,0.369l-0.313-2.98l3.508-0.368L372.268,281.333z M374.148,299.238l-3.508,0.368
				l-1.537-14.619l3.51-0.368L374.148,299.238z"/>
			<path fill="#FFFFFF" d="M384.701,286.051l-3.564,0.375l1.256,11.945l-3.51,0.369l-1.256-11.945l-2.061,0.216l-0.281-2.674
				l2.061-0.216l-0.135-1.281c-0.369-3.508,0.313-5.072,4.154-5.477l2.283-0.24l0.281,2.674l-1.057,0.111
				c-2.404,0.168-2.303,1.143-2.111,2.953l0.094,0.891l3.564-0.375L384.701,286.051z"/>
			<path fill="#FFFFFF" d="M390.031,279.465l-3.508,0.369l-0.313-2.98l3.508-0.369L390.031,279.465z M391.914,297.37l-3.508,0.369
				l-1.537-14.619l3.508-0.369L391.914,297.37z"/>
			<path fill="#FFFFFF" d="M408.092,290.04c0.504,4.789-1.123,5.918-6.051,6.436c-5.375,0.564-6.709-0.872-7.33-6.775
				c-0.537-5.124,0.021-7.574,5.758-8.178c4.344-0.457,6.725-0.031,7.211,4.592l-3.508,0.368c-0.234-2.229-0.973-2.544-3.422-2.286
				c-3.008,0.316-2.924,1.377-2.529,5.135c0.383,3.648,0.447,4.797,3.539,4.472c2.867-0.302,3.094-0.833,2.824-3.394L408.092,290.04
				z"/>
			<path fill="#FFFFFF" d="M421.377,292.417l-0.082,0.009c-0.492,2.022-2.631,2.302-4.328,2.481
				c-3.314,0.348-5.531-0.123-5.947-4.076c-0.369-3.51,1.367-4.677,4.986-5.057c1.783-0.188,3.539-0.345,4.547,1.21l0.111-0.012
				l-0.197-1.894c-0.25-2.366-0.533-3.182-3.457-2.875c-1.531,0.162-2.742,0.43-2.543,2.324l-3.508,0.368
				c-0.447-4.261,2.459-4.735,5.801-5.087c4.678-0.491,6.703,0.029,7.219,4.93l0.963,9.16l-3.51,0.369L421.377,292.417z
				 M414.527,290.461c0.217,2.061,1.072,2.168,3.439,1.918c1.867-0.195,3.213-0.506,2.994-2.594
				c-0.215-2.033-1.725-1.932-3.449-1.75C415.729,288.223,414.309,288.372,414.527,290.461z"/>
			<path fill="#FFFFFF" d="M425.854,279.022l1.838-0.192l-0.348-3.314l3.508-0.369l0.35,3.314l5.596-0.589l0.281,2.674l-5.598,0.589
				l0.789,7.49c0.168,1.334,0.232,1.946,1.707,1.792c1.979-0.209,1.592-1.744,1.43-3.275l3.092-0.325
				c0.521,4.422-0.453,5.874-4.24,6.272c-3.842,0.404-5.105-0.363-5.494-4.067l-0.791-7.518l-1.838,0.192L425.854,279.022z"/>
			<path fill="#FFFFFF" d="M443.191,273.877l-3.51,0.369l-0.313-2.979l3.508-0.368L443.191,273.877z M445.072,291.784l-3.508,0.368
				l-1.537-14.619l3.51-0.368L445.072,291.784z"/>
			<path fill="#FFFFFF" d="M461.57,282.672c0.594,5.654,0.006,7.545-6.094,8.186c-6.098,0.642-7.068-1.086-7.662-6.739
				c-0.598-5.68-0.008-7.572,6.092-8.214C460.004,275.264,460.973,276.993,461.57,282.672z M451.326,283.778
				c0.41,3.898,0.752,4.736,3.869,4.408c3.119-0.328,3.279-1.218,2.869-5.116c-0.414-3.954-0.76-4.818-3.879-4.491
				C451.068,278.907,450.91,279.825,451.326,283.778z"/>
			<path fill="#FFFFFF" d="M468.014,274.591l0.23,2.199l0.111-0.012c0.555-2.226,2.285-2.632,4.346-2.849
				c3.844-0.404,5.18,1.061,5.555,4.625l1.012,9.634l-3.508,0.369l-0.975-9.272c-0.223-2.116-0.773-2.79-3.027-2.553
				c-3.064,0.321-3.328,1.813-3.055,4.431l0.848,8.047l-3.51,0.369l-1.537-14.619L468.014,274.591z"/>
		</g>
	</g>
</g>
</svg>
